<svg width="48" height="48" viewBox="0 0 48 48" fill="none" xmlns="http://www.w3.org/2000/svg">
<rect width="48" height="48" fill="#C4C4C4"/>
<path d="M43 18.01V37.01C43 38.67 41.72 40.01 40.15 40.01H7.85C6.28 40.01 5 38.67 5 37.01V18.01C5 16.35 6.28 15.01 7.85 15.01H12.64C13.6 15.01 14.5 14.5 15.02 13.65L17.68 9.36C18.21 8.51 19.1 8 20.06 8H27.92C28.88 8 29.78 8.51 30.3 9.35L32.97 13.64C33.5 14.49 34.39 14.99 35.35 14.99H40.13C41.72 15.01 43 16.35 43 18.01Z" stroke="#2B2E3C" stroke-width="3" stroke-miterlimit="10"/>
<path d="M24 34.0098C27.866 34.0098 31 30.8758 31 27.0098C31 23.1438 27.866 20.0098 24 20.0098C20.134 20.0098 17 23.1438 17 27.0098C17 30.8758 20.134 34.0098 24 34.0098Z" stroke="#2B2E3C" stroke-width="3" stroke-miterlimit="10"/>
</svg>
