<svg width="48" height="48" viewBox="0 0 48 48" fill="none" xmlns="http://www.w3.org/2000/svg">
<rect width="48" height="48" fill="#C4C4C4"/>
<path d="M25.3069 7.11L29.4769 15.56C29.7669 16.15 30.3269 16.56 30.9869 16.65L40.3169 18.01C41.9569 18.25 42.6169 20.26 41.4269 21.42L34.6769 28C34.2069 28.46 33.9869 29.12 34.0969 29.77L35.6869 39.06C35.9669 40.69 34.2569 41.94 32.7869 41.17L24.4469 36.78C23.8669 36.47 23.1669 36.47 22.5869 36.78L14.2469 41.17C12.7769 41.94 11.0669 40.7 11.3469 39.06L12.9369 29.77C13.0469 29.12 12.8369 28.46 12.3569 28L5.60693 21.42C4.41693 20.26 5.07693 18.25 6.71693 18.01L16.0469 16.65C16.6969 16.56 17.2569 16.15 17.5569 15.56L21.7269 7.11C22.4469 5.63 24.5669 5.63 25.3069 7.11Z" fill="#2B2E3C"/>
</svg>
