<svg width="48" height="48" viewBox="0 0 48 48" fill="none" xmlns="http://www.w3.org/2000/svg">
<rect width="48" height="48" fill="#C4C4C4"/>
<path d="M24 4C12.8571 4 4 11.7143 4 21.4286C4 26.8571 6.85714 32 11.4286 35.1429V44L20.2857 38.5714C21.4286 38.8571 22.8571 38.8571 24 38.8571C35.1429 38.8571 44 31.1429 44 21.4286C44 11.7143 35.1429 4 24 4ZM14 24C12.5714 24 11.4286 22.8571 11.4286 21.4286C11.4286 20 12.5714 18.8571 14 18.8571C15.4286 18.8571 16.5714 20 16.5714 21.4286C16.5714 22.8571 15.4286 24 14 24ZM24 24C22.5714 24 21.4286 22.8571 21.4286 21.4286C21.4286 20 22.5714 18.8571 24 18.8571C25.4286 18.8571 26.5714 20 26.5714 21.4286C26.5714 22.8571 25.4286 24 24 24ZM34 24C32.5714 24 31.4286 22.8571 31.4286 21.4286C31.4286 20 32.5714 18.8571 34 18.8571C35.4286 18.8571 36.5714 20 36.5714 21.4286C36.5714 22.8571 35.4286 24 34 24Z" fill="black"/>
</svg>
