<svg width="48" height="48" viewBox="0 0 48 48" fill="none" xmlns="http://www.w3.org/2000/svg">
<rect width="48" height="48" fill="#C4C4C4"/>
<path d="M12.13 36C8.19 36 5 33.03 5 29.37C5 25.98 7.74 23.18 11.26 22.79C11.68 20.75 13.61 19.2 15.92 19.2C16.31 19.2 16.69 19.24 17.06 19.33C18.54 15.63 22.37 13 26.85 13C32.63 13 37.3 17.35 37.3 22.73V22.86C40.55 23.48 43 26.15 43 29.36C43 33.02 39.81 35.99 35.87 35.99H12.13V36Z" fill="#2B2E3C"/>
<path d="M26.9303 21H23.0703V30.8H26.9303V21Z" fill="white"/>
<path d="M20 27.46L25 32.9L30 27.46H20Z" fill="white"/>
</svg>
