<svg width="48" height="48" viewBox="0 0 48 48" fill="none" xmlns="http://www.w3.org/2000/svg">
<rect width="48" height="48" fill="#C4C4C4"/>
<path d="M37.3909 11H10.5995C10.3525 11.0072 10.1134 11.086 9.91297 11.2261C9.71257 11.3662 9.56002 11.5613 9.47499 11.7861C9.38996 12.011 9.37634 12.2554 9.43587 12.4879C9.4954 12.7204 9.62537 12.9302 9.80903 13.0905L23.2018 24.8311C23.4178 25.0223 23.6997 25.1282 23.9922 25.1282C24.2847 25.1282 24.5666 25.0223 24.7826 24.8311L38.1754 13.0905C38.3595 12.9309 38.4901 12.7215 38.5502 12.4893C38.6104 12.2571 38.5974 12.0128 38.513 11.7879C38.4286 11.5629 38.2766 11.3676 38.0766 11.2272C37.8766 11.0867 37.6377 11.0076 37.3909 11Z" fill="#2C2F3D"/>
<path d="M22.4125 27.1696L7.99249 14.6986C7.81868 14.549 7.60372 14.4517 7.37382 14.4185C7.14393 14.3854 6.90905 14.4177 6.69782 14.5117C6.48659 14.6057 6.30815 14.7573 6.18427 14.9479C6.06039 15.1386 5.99641 15.36 6.00016 15.5853V34.6404C5.99781 34.9481 6.05802 35.2532 6.17734 35.5383C6.29665 35.8234 6.47274 36.083 6.69554 36.3022C6.91835 36.5213 7.18351 36.6958 7.47588 36.8156C7.76826 36.9355 8.08212 36.9983 8.39955 37.0006H39.6005C39.9179 36.9983 40.2318 36.9355 40.5242 36.8156C40.8165 36.6958 41.0817 36.5213 41.3045 36.3022C41.5273 36.083 41.7034 35.8234 41.8227 35.5383C41.942 35.2532 42.0022 34.9481 41.9999 34.6404V15.5853C42.003 15.3603 41.9386 15.1393 41.8146 14.949C41.6906 14.7588 41.5123 14.6076 41.3013 14.5137C41.0904 14.4198 40.8558 14.3873 40.6261 14.4201C40.3965 14.4529 40.1816 14.5497 40.0076 14.6986L25.5861 27.1696C25.1511 27.5491 24.5867 27.7591 24.0015 27.7591C23.4163 27.7591 22.8519 27.5491 22.417 27.1696H22.4125Z" fill="#2C2F3D"/>
</svg>
