<svg width="48" height="48" viewBox="0 0 48 48" fill="none" xmlns="http://www.w3.org/2000/svg">
<rect width="48" height="48" fill="white"/>
<path d="M24 43C34.4934 43 43 34.4934 43 24C43 13.5066 34.4934 5 24 5C13.5066 5 5 13.5066 5 24C5 34.4934 13.5066 43 24 43Z" stroke="#2C2F3D" stroke-width="3" stroke-miterlimit="10"/>
<path d="M16.5 24C18.433 24 20 22.433 20 20.5C20 18.567 18.433 17 16.5 17C14.567 17 13 18.567 13 20.5C13 22.433 14.567 24 16.5 24Z" fill="#2C2F3D"/>
<path d="M31.5 24C33.433 24 35 22.433 35 20.5C35 18.567 33.433 17 31.5 17C29.567 17 28 18.567 28 20.5C28 22.433 29.567 24 31.5 24Z" fill="#2C2F3D"/>
<path d="M13.0605 28C13.6105 33.05 18.3005 37 24.0005 37C29.7005 37 34.3905 33.05 34.9405 28H13.0605Z" fill="#2C2F3D"/>
</svg>
