<svg width="48" height="48" viewBox="0 0 48 48" fill="none" xmlns="http://www.w3.org/2000/svg">
<rect width="48" height="48" fill="#C4C4C4"/>
<path d="M24.2019 13C20.7042 13.0023 17.2881 14.0575 14.3984 16.0283C11.5087 17.9991 9.27913 20.7941 8 24.0496C9.27781 27.3058 11.5071 30.1014 14.3972 32.0719C17.2872 34.0424 20.704 35.0963 24.2019 35.0963C27.6998 35.0963 31.1166 34.0424 34.0067 32.0719C36.8968 30.1014 39.126 27.3058 40.4038 24.0496C39.1256 20.7935 36.8963 17.9979 34.0064 16.027C31.1165 14.0561 27.6999 13.0013 24.2019 13ZM24.2019 31.4118C22.7454 31.4118 21.3216 30.9799 20.1106 30.1708C18.8996 29.3616 17.9557 28.2115 17.3983 26.8658C16.8409 25.5202 16.6951 24.0395 16.9793 22.611C17.2634 21.1825 17.9648 19.8703 18.9947 18.8404C20.0246 17.8105 21.3367 17.1092 22.7652 16.825C24.1938 16.5409 25.6744 16.6867 27.0201 17.2441C28.3657 17.8015 29.5158 18.7454 30.325 19.9564C31.1342 21.1674 31.5661 22.5912 31.5661 24.0477C31.5661 26.0011 30.7903 27.8745 29.4093 29.256C28.0284 30.6375 26.1553 31.414 24.2019 31.4147V31.4118ZM24.2019 19.6288C23.3285 19.6288 22.4747 19.8878 21.7485 20.373C21.0223 20.8583 20.4563 21.548 20.1221 22.3549C19.7878 23.1618 19.7004 24.0497 19.8708 24.9063C20.0412 25.7629 20.4617 26.5498 21.0793 27.1674C21.6969 27.785 22.4838 28.2056 23.3404 28.376C24.197 28.5463 25.0849 28.4589 25.8919 28.1247C26.6988 27.7904 27.3885 27.2244 27.8737 26.4982C28.3589 25.772 28.6179 24.9182 28.6179 24.0448C28.6156 22.8745 28.1496 21.7528 27.3219 20.9254C26.4941 20.0981 25.3722 19.6325 24.2019 19.6307V19.6288Z" fill="#2C2F3D"/>
</svg>
