<svg width="48" height="48" viewBox="0 0 48 48" fill="none" xmlns="http://www.w3.org/2000/svg">
<rect width="48" height="48" fill="#C4C4C4"/>
<path d="M33 5.28664V11.3136H29.5476C29.0906 11.2539 28.6265 11.2964 28.1866 11.4381C27.7466 11.5798 27.3409 11.8176 26.9967 12.1354C26.5074 12.8525 26.2742 13.7242 26.337 14.6005V18.9151H32.7804L31.9224 25.6728H26.337V43H19.6076V25.6698H14V18.9121H19.6076V13.9357C19.5361 12.7341 19.7021 11.53 20.0954 10.3975C20.4888 9.26492 21.1011 8.22783 21.8947 7.34996C22.7062 6.55482 23.6639 5.93774 24.7105 5.53564C25.757 5.13354 26.871 4.95467 27.9857 5.00974C29.6612 4.98211 31.3367 5.07463 33 5.28664Z" fill="white"/>
</svg>
