<svg width="48" height="48" viewBox="0 0 48 48" fill="none" xmlns="http://www.w3.org/2000/svg">
<rect width="48" height="48" fill="#C4C4C4"/>
<path d="M41.2366 19.8228H30.2392C34.5006 3.81747 27.3031 3 27.3031 3C24.2525 3 24.8849 5.45312 24.6542 5.86207C24.6542 13.6894 16.4791 19.8228 16.4791 19.8228V42.0198C16.4791 44.2109 19.4152 45 20.567 45H37.0906C38.6457 45 39.912 40.8525 39.912 40.8525C44 26.7162 44 22.5101 44 22.5101C44 19.5895 41.2366 19.8228 41.2366 19.8228ZM11.9661 19.8302H5.38093C4.02096 19.8302 4 21.1886 4 21.1886L5.35997 43.5751C5.35997 45 6.76346 45 6.76346 45H12.463C13.6503 45 13.6398 44.0574 13.6398 44.0574V21.5278C13.6398 19.8084 11.9661 19.8302 11.9661 19.8302Z" fill="black"/>
</svg>
