<svg width="48" height="48" viewBox="0 0 48 48" fill="none" xmlns="http://www.w3.org/2000/svg">
<rect width="48" height="48" fill="white"/>
<path d="M23.7 38.2487L10.0907 24.6393C8.36417 22.9129 7.5 20.6498 7.5 18.37C7.5 16.0995 8.36469 13.8266 10.0907 12.1007C11.8182 10.3732 14.1017 9.5 16.37 9.5C18.6405 9.5 20.9134 10.3647 22.6393 12.0907L23.6974 13.1487L24.758 12.0933C26.4966 10.3633 28.7617 9.5 31.03 9.5C33.3075 9.5 35.5813 10.3726 37.3093 12.1007C39.0445 13.8359 39.9 16.0983 39.9 18.37C39.9 20.6405 39.0353 22.9134 37.3093 24.6393L23.7 38.2487Z" stroke="#2B2E3C" stroke-width="3"/>
</svg>
