<svg width="48" height="48" viewBox="0 0 48 48" fill="none" xmlns="http://www.w3.org/2000/svg">
<rect width="48" height="48" fill="#C4C4C4"/>
<path d="M36 41H12C10.34 41 9 39.66 9 38V18C9 16.34 10.34 15 12 15H36C37.66 15 39 16.34 39 18V38C39 39.66 37.66 41 36 41Z" stroke="#2B2E3C" stroke-width="3" stroke-miterlimit="10"/>
<path d="M12 11H36" stroke="#2B2E3C" stroke-width="2" stroke-miterlimit="10" stroke-linecap="round" stroke-linejoin="round"/>
<path d="M15 7H33" stroke="#2B2E3C" stroke-width="2" stroke-miterlimit="10" stroke-linecap="round" stroke-linejoin="round"/>
<path d="M30.3904 21.3603C30.0404 21.0703 29.5904 20.9403 29.1404 21.0203L20.7904 22.4703C20.0504 22.6003 19.5204 23.2403 19.5204 23.9903V31.7903C19.2504 31.6703 18.9504 31.6003 18.6404 31.6003C17.4304 31.6003 16.4404 32.5803 16.4404 33.8003C16.4404 35.0103 17.4204 36.0003 18.6404 36.0003C19.8604 36.0003 20.8404 35.0203 20.8404 33.8003V26.4403L29.6304 24.9103V29.5903C29.3604 29.4703 29.0604 29.4003 28.7504 29.4003C27.5404 29.4003 26.5504 30.3803 26.5504 31.6003C26.5504 32.8203 27.5304 33.8003 28.7504 33.8003C29.9704 33.8003 30.9504 32.8203 30.9504 31.6003V22.5303C30.9304 22.0803 30.7304 21.6503 30.3904 21.3603Z" fill="#2B2E3C"/>
</svg>
