<svg width="48" height="48" viewBox="0 0 48 48" fill="none" xmlns="http://www.w3.org/2000/svg">
<rect width="48" height="48" fill="#C4C4C4"/>
<path d="M41 40H7C5.34 40 4 38.66 4 37V11C4 9.34 5.34 8 7 8H17.14C17.7 8 18.25 8.16 18.73 8.46L25.27 12.55C25.75 12.85 26.3 13.01 26.86 13.01H41C42.66 13.01 44 14.35 44 16.01V37.01C44 38.66 42.66 40 41 40Z" stroke="#2B2E3C" stroke-width="3" stroke-miterlimit="10"/>
<path d="M28 8H42" stroke="#2B2E3C" stroke-width="3" stroke-miterlimit="10" stroke-linecap="round" stroke-linejoin="round"/>
<path d="M29.9598 19.36C29.6098 19.07 29.1598 18.94 28.7098 19.02L20.3598 20.47C19.6198 20.6 19.0898 21.24 19.0898 21.99V29.79C18.8198 29.67 18.5198 29.6 18.2098 29.6C16.9998 29.6 16.0098 30.58 16.0098 31.8C16.0098 33.01 16.9898 34 18.2098 34C19.4298 34 20.4098 33.02 20.4098 31.8V24.44L29.1998 22.91V27.59C28.9298 27.47 28.6298 27.4 28.3198 27.4C27.1098 27.4 26.1198 28.38 26.1198 29.6C26.1198 30.82 27.0998 31.8 28.3198 31.8C29.5398 31.8 30.5198 30.82 30.5198 29.6V20.53C30.5098 20.08 30.3098 19.65 29.9598 19.36Z" fill="#2B2E3C"/>
</svg>
