<svg width="48" height="48" viewBox="0 0 48 48" fill="none" xmlns="http://www.w3.org/2000/svg">
<rect width="48" height="48" fill="#C4C4C4"/>
<path d="M24.1271 44.9725C23.6256 44.9725 23.3488 44.9123 23.1725 44.7058C23.0665 44.5816 12.4079 31.9307 9.56763 25.8043C8.5415 23.6097 8 21.2267 8 18.9012C8 10.1314 15.2343 3 24.1271 3C33.02 3 40.2543 10.1807 40.2543 19.0045C40.2543 21.6703 39.7546 23.6846 38.5298 25.9561C35.1431 32.2321 25.1957 44.5576 25.0963 44.6806C24.9776 44.829 24.7656 44.9725 24.152 44.9725H24.1271V44.9725ZM24.1271 12.7663C20.7072 12.7663 17.9244 15.549 17.9244 18.969C17.9244 22.3891 20.7072 25.1718 24.1271 25.1718C27.5471 25.1718 30.3299 22.3891 30.3299 18.969C30.3299 15.549 27.5471 12.7663 24.1271 12.7663Z" fill="#2C2F3D"/>
</svg>
