<svg width="48" height="48" viewBox="0 0 48 48" fill="none" xmlns="http://www.w3.org/2000/svg">
<rect width="48" height="48" fill="white"/>
<path d="M24 23C28.41 23 32 26.59 32 31C32 35.41 28.41 39 24 39C19.59 39 16 35.41 16 31C16 26.59 19.59 23 24 23ZM24 20C17.92 20 13 24.92 13 31C13 37.08 17.92 42 24 42C30.08 42 35 37.08 35 31C35 24.92 30.08 20 24 20Z" fill="#2B2E3C"/>
<path d="M24 6V21" stroke="#2B2E3C" stroke-width="3" stroke-miterlimit="10" stroke-linecap="round" stroke-linejoin="round"/>
<path d="M16 15L24 6L32 15" stroke="#2B2E3C" stroke-width="3" stroke-miterlimit="10" stroke-linecap="round" stroke-linejoin="round"/>
</svg>
