<svg width="48" height="48" viewBox="0 0 48 48" fill="none" xmlns="http://www.w3.org/2000/svg">
<rect width="48" height="48" fill="#C4C4C4"/>
<path d="M39.7539 9.59998H9.39387C9.10434 9.60139 8.81792 9.65986 8.551 9.77204C8.28408 9.88422 8.04189 10.0479 7.83827 10.2538C7.63466 10.4596 7.47361 10.7036 7.36435 10.9717C7.25508 11.2398 7.19973 11.5268 7.20147 11.8164V12.114C7.20147 13.3356 8.18427 13.5216 9.39387 13.5216H39.7539C40.9647 13.5216 41.9463 13.3404 41.9463 12.114V11.8164C41.948 11.5268 41.8927 11.2398 41.7834 10.9717C41.6741 10.7036 41.5131 10.4596 41.3095 10.2538C41.1059 10.0479 40.8637 9.88422 40.5967 9.77204C40.3298 9.65986 40.0434 9.60139 39.7539 9.59998ZM35.7123 21.7788H9.39267C9.10273 21.7802 8.81592 21.8388 8.54869 21.9513C8.28145 22.0638 8.03904 22.2279 7.83536 22.4343C7.63168 22.6406 7.47074 22.8851 7.36176 23.1538C7.25278 23.4225 7.1979 23.71 7.20027 24V23.49C7.1974 24.0745 7.42669 24.6363 7.83778 25.0519C8.24887 25.4675 8.80813 25.7029 9.39267 25.7064H35.7123C36.0018 25.705 36.2882 25.6465 36.5551 25.5343C36.8221 25.4221 37.0642 25.2585 37.2679 25.0526C37.4715 24.8468 37.6325 24.6028 37.7418 24.3347C37.8511 24.0665 37.9064 23.7795 37.9047 23.49V24C37.9067 23.7101 37.8516 23.4227 37.7425 23.1542C37.6334 22.8857 37.4725 22.6412 37.2689 22.435C37.0652 22.2287 36.823 22.0645 36.5559 21.9519C36.2888 21.8393 36.0021 21.7805 35.7123 21.7788ZM31.6803 33.96H9.39747C9.10794 33.9614 8.82152 34.0199 8.5546 34.132C8.28768 34.2442 8.04549 34.4079 7.84187 34.6138C7.63826 34.8196 7.47722 35.0636 7.36795 35.3317C7.25868 35.5998 7.20333 35.8869 7.20507 36.1764V36.474C7.20507 37.6956 8.18787 37.8816 9.39747 37.8816H31.6803C32.8911 37.8816 33.8727 37.7004 33.8727 36.474V36.1728C33.8752 35.5887 33.6457 35.0274 33.2346 34.6125C32.8235 34.1975 32.2644 33.9628 31.6803 33.96Z" fill="#2C2F3D"/>
</svg>
