<svg width="48" height="48" viewBox="0 0 48 48" fill="none" xmlns="http://www.w3.org/2000/svg">
<rect width="48" height="48" fill="#C4C4C4"/>
<path d="M37 37H11C9.34 37 8 35.66 8 34C8 32.34 9.34 31 11 31H37C38.66 31 40 32.34 40 34C40 35.66 38.66 37 37 37Z" fill="#2B2E3C"/>
<path d="M36 34H12V20C12 13.37 17.37 8 24 8C30.63 8 36 13.37 36 20V34Z" fill="#2B2E3C"/>
<path d="M27 19H21V7C21 5.34 22.34 4 24 4C25.66 4 27 5.34 27 7V19Z" fill="#2B2E3C"/>
<path d="M24 44C21.24 44 19 41.76 19 39H29C29 41.76 26.76 44 24 44Z" fill="#2B2E3C"/>
</svg>
