<svg width="48" height="48" viewBox="0 0 48 48" fill="none" xmlns="http://www.w3.org/2000/svg">
<rect width="48" height="48" fill="#C4C4C4"/>
<path fill-rule="evenodd" clip-rule="evenodd" d="M35.6775 17.2234C35.8884 18.1146 36 19.0442 36 20V31H37C38.66 31 40 32.34 40 34C40 35.66 38.66 37 37 37H11C9.34 37 8 35.66 8 34C8 32.34 9.34 31 11 31H12V20C12 14.406 15.8229 9.70898 21 8.37767V7C21 5.34 22.34 4 24 4C25.66 4 27 5.34 27 7V8.37767C27.9008 8.60932 28.7606 8.94287 29.5665 9.36532C28.6019 10.2768 28 11.5681 28 13C28 15.7614 30.2386 18 33 18C33.985 18 34.9034 17.7152 35.6775 17.2234ZM24 44C21.24 44 19 41.76 19 39H29C29 41.76 26.76 44 24 44Z" fill="#2B2E3C"/>
<circle cx="33" cy="13" r="4" fill="#FF316B"/>
</svg>
