<svg width="48" height="48" viewBox="0 0 48 48" fill="none" xmlns="http://www.w3.org/2000/svg">
<rect width="48" height="48" fill="#C4C4C4"/>
<path d="M23.9392 8.02601C24.3349 7.96932 24.7384 8.00559 25.1177 8.13193C25.4969 8.25828 25.8416 8.47123 26.1243 8.75391C26.407 9.03659 26.6199 9.38123 26.7463 9.76051C26.8726 10.1398 26.9088 10.5433 26.8521 10.939C26.9088 11.3347 26.8726 11.7382 26.7463 12.1175C26.6199 12.4968 26.407 12.8414 26.1243 13.1241C25.8416 13.4068 25.4969 13.6198 25.1177 13.7461C24.7384 13.8724 24.3349 13.9087 23.9392 13.852C23.5434 13.9087 23.1399 13.8724 22.7607 13.7461C22.3814 13.6198 22.0367 13.4068 21.7541 13.1241C21.4714 12.8414 21.2584 12.4968 21.1321 12.1175C21.0057 11.7382 20.9695 11.3347 21.0262 10.939C20.9695 10.5433 21.0057 10.1398 21.1321 9.76051C21.2584 9.38123 21.4714 9.03659 21.7541 8.75391C22.0367 8.47123 22.3814 8.25828 22.7607 8.13193C23.1399 8.00559 23.5434 7.96932 23.9392 8.02601ZM23.9392 21.295C24.3349 21.2383 24.7384 21.2746 25.1177 21.4009C25.4969 21.5273 25.8416 21.7402 26.1243 22.0229C26.407 22.3056 26.6199 22.6502 26.7463 23.0295C26.8726 23.4088 26.9088 23.8123 26.8521 24.208C26.9088 24.6038 26.8726 25.0072 26.7463 25.3865C26.6199 25.7658 26.407 26.1104 26.1243 26.3931C25.8416 26.6758 25.4969 26.8887 25.1177 27.0151C24.7384 27.1414 24.3349 27.1777 23.9392 27.121C23.5433 27.1777 23.1398 27.1415 22.7604 27.0151C22.381 26.8887 22.0363 26.6756 21.7536 26.3928C21.4709 26.11 21.258 25.7653 21.1317 25.3858C21.0054 25.0064 20.9693 24.6028 21.0262 24.207C20.9696 23.8114 21.006 23.408 21.1325 23.0288C21.2589 22.6497 21.4719 22.3052 21.7545 22.0226C22.0372 21.7401 22.3817 21.5272 22.7609 21.4009C23.1401 21.2746 23.5435 21.2384 23.9392 21.295ZM23.9392 34.563C24.3349 34.5063 24.7384 34.5426 25.1177 34.6689C25.4969 34.7953 25.8416 35.0082 26.1243 35.2909C26.407 35.5736 26.6199 35.9182 26.7463 36.2975C26.8726 36.6768 26.9088 37.0803 26.8521 37.476C26.9088 37.8717 26.8726 38.2752 26.7463 38.6545C26.6199 39.0338 26.407 39.3784 26.1243 39.6611C25.8416 39.9438 25.4969 40.1567 25.1177 40.2831C24.7384 40.4094 24.3349 40.4457 23.9392 40.389C23.5434 40.4457 23.1399 40.4094 22.7607 40.2831C22.3814 40.1567 22.0367 39.9438 21.7541 39.6611C21.4714 39.3784 21.2584 39.0338 21.1321 38.6545C21.0057 38.2752 20.9695 37.8717 21.0262 37.476C20.9695 37.0803 21.0057 36.6768 21.1321 36.2975C21.2584 35.9182 21.4714 35.5736 21.7541 35.2909C22.0367 35.0082 22.3814 34.7953 22.7607 34.6689C23.1399 34.5426 23.5434 34.5063 23.9392 34.563Z" fill="#2C2F3D"/>
</svg>
