<svg width="48" height="48" viewBox="0 0 48 48" fill="none" xmlns="http://www.w3.org/2000/svg">
<rect width="48" height="48" fill="white"/>
<path d="M39.75 8.79879C38.96 8.15879 37.92 7.87879 36.9 8.04879L17.9 11.2488C16.22 11.5288 15 12.9288 15 14.5788V31.7388C14.39 31.4788 13.71 31.3288 13 31.3288C10.24 31.3288 8 33.4888 8 36.1688C8 38.8488 10.24 40.9988 13 40.9988C15.76 40.9988 18 38.8388 18 36.1588V19.9788L38 16.6188V26.8988C37.39 26.6388 36.71 26.4888 36 26.4888C33.24 26.4888 31 28.6488 31 31.3288C31 34.0088 33.24 36.1688 36 36.1688C38.76 36.1688 41 34.0088 41 31.3288V11.3888C41 10.3788 40.55 9.43879 39.75 8.79879Z" fill="#2C2F3D"/>
</svg>
