<svg width="48" height="48" viewBox="0 0 48 48" fill="none" xmlns="http://www.w3.org/2000/svg">
<rect width="48" height="48" fill="#C4C4C4"/>
<path d="M24.7832 11.0072C26.3773 11.0169 27.9133 11.5984 29.1035 12.6428C30.2938 13.6872 31.0568 15.1229 31.2497 16.6813H35.1581C34.9929 14.0598 33.8189 11.599 31.8754 9.8002C29.9319 8.00141 27.365 7 24.6979 7C22.0307 7 19.4639 8.00141 17.5204 9.8002C15.5768 11.599 14.4029 14.0598 14.2376 16.6813H18.3189C18.5096 15.1224 19.2716 13.6857 20.4619 12.6409C21.6521 11.5962 23.1887 11.0152 24.7832 11.0072ZM34.4155 19.0384H14.3821C13.2199 19.0384 12.1053 19.4931 11.2835 20.3024C10.4617 21.1117 10 22.2093 10 23.3538V37.2446C10 38.3891 10.4617 39.4868 11.2835 40.2961C12.1053 41.1054 13.2199 41.56 14.3821 41.56H34.4179C35.5801 41.56 36.6947 41.1054 37.5165 40.2961C38.3383 39.4868 38.8 38.3891 38.8 37.2446V23.3585C38.7991 22.2132 38.3367 21.1151 37.5145 20.3052C36.6923 19.4952 35.5773 19.0397 34.4143 19.0384H34.4155ZM26.2648 30.6724V33.8087C26.2712 34.0644 26.2256 34.3187 26.1306 34.5568C26.0357 34.7949 25.8933 35.0119 25.712 35.1949C25.5306 35.378 25.3138 35.5235 25.0745 35.6229C24.8351 35.7222 24.578 35.7734 24.3183 35.7734C24.0586 35.7734 23.8014 35.7222 23.5621 35.6229C23.3227 35.5235 23.106 35.378 22.9246 35.1949C22.7432 35.0119 22.6009 34.7949 22.5059 34.5568C22.411 34.3187 22.3654 34.0644 22.3718 33.8087V30.7179C22.0417 30.4046 21.7955 30.0156 21.6554 29.5857C21.5153 29.1558 21.4855 28.6983 21.5687 28.2543C21.652 27.8103 21.8456 27.3935 22.1324 27.0412C22.4192 26.6889 22.7901 26.4121 23.2121 26.2355C23.634 26.0589 24.0939 25.988 24.5505 26.0291C25.007 26.0703 25.4462 26.2222 25.8286 26.4713C26.211 26.7204 26.5247 27.0589 26.7418 27.4566C26.9589 27.8544 27.0725 28.2988 27.0725 28.7504C27.0666 29.4702 26.7765 30.1595 26.2636 30.6724H26.2648Z" fill="#2C2F3D"/>
</svg>
