<svg width="48" height="48" viewBox="0 0 48 48" fill="none" xmlns="http://www.w3.org/2000/svg">
<rect width="48" height="48" fill="#C4C4C4"/>
<path d="M39.5 44C38.837 44 38.2011 43.7366 37.7322 43.2678C37.2634 42.7989 37 42.163 37 41.5V21.5C37 20.837 37.2634 20.2011 37.7322 19.7322C38.2011 19.2634 38.837 19 39.5 19C40.163 19 40.7989 19.2634 41.2678 19.7322C41.7366 20.2011 42 20.837 42 21.5V41.5C42 42.163 41.7366 42.7989 41.2678 43.2678C40.7989 43.7366 40.163 44 39.5 44ZM29.5 44C28.837 44 28.2011 43.7366 27.7322 43.2678C27.2634 42.7989 27 42.163 27 41.5V6.5C27 5.83696 27.2634 5.20107 27.7322 4.73223C28.2011 4.26339 28.837 4 29.5 4C30.163 4 30.7989 4.26339 31.2678 4.73223C31.7366 5.20107 32 5.83696 32 6.5V41.5C32 42.163 31.7366 42.7989 31.2678 43.2678C30.7989 43.7366 30.163 44 29.5 44ZM19.5 44C18.837 44 18.2011 43.7366 17.7322 43.2678C17.2634 42.7989 17 42.163 17 41.5V31.5C17 30.837 17.2634 30.2011 17.7322 29.7322C18.2011 29.2634 18.837 29 19.5 29C20.163 29 20.7989 29.2634 21.2678 29.7322C21.7366 30.2011 22 30.837 22 31.5V41.5C22 42.163 21.7366 42.7989 21.2678 43.2678C20.7989 43.7366 20.163 44 19.5 44ZM9.5 44C8.83696 44 8.20107 43.7366 7.73223 43.2678C7.26339 42.7989 7 42.163 7 41.5V16.5C7 15.837 7.26339 15.2011 7.73223 14.7322C8.20107 14.2634 8.83696 14 9.5 14C10.163 14 10.7989 14.2634 11.2678 14.7322C11.7366 15.2011 12 15.837 12 16.5V41.5C12 42.163 11.7366 42.7989 11.2678 43.2678C10.7989 43.7366 10.163 44 9.5 44Z" fill="white"/>
</svg>
