<svg width="48" height="48" viewBox="0 0 48 48" fill="none" xmlns="http://www.w3.org/2000/svg">
<rect width="48" height="48" fill="white"/>
<path d="M24 44C35.0457 44 44 35.0457 44 24C44 12.9543 35.0457 4 24 4C12.9543 4 4 12.9543 4 24C4 35.0457 12.9543 44 24 44Z" stroke="#2C2F3D" stroke-width="3" stroke-miterlimit="10"/>
<path d="M31.83 17.25C33.49 19.11 34.5 21.56 34.5 24.25C34.5 30.05 29.8 34.75 24 34.75C18.2 34.75 13.5 30.05 13.5 24.25C13.5 21.56 14.51 19.11 16.17 17.25" stroke="#2C2F3D" stroke-miterlimit="10" stroke-linecap="round" stroke-linejoin="round"/>
<path d="M35.18 13.5C37.56 16.15 39 19.66 39 23.5C39 31.78 32.28 38.5 24 38.5C15.72 38.5 9 31.78 9 23.5C9 19.66 10.44 16.15 12.82 13.5" stroke="#2C2F3D" stroke-miterlimit="10" stroke-linecap="round" stroke-linejoin="round"/>
<path d="M24 24L13 13" stroke="#2C2F3D" stroke-width="3" stroke-miterlimit="10" stroke-linecap="round" stroke-linejoin="round"/>
<path d="M24 27C25.6569 27 27 25.6569 27 24C27 22.3431 25.6569 21 24 21C22.3431 21 21 22.3431 21 24C21 25.6569 22.3431 27 24 27Z" fill="#2C2F3D"/>
<path d="M38.5 23C39.8807 23 41 21.8807 41 20.5C41 19.1193 39.8807 18 38.5 18C37.1193 18 36 19.1193 36 20.5C36 21.8807 37.1193 23 38.5 23Z" fill="#2C2F3D"/>
<path d="M25.5 37C26.8807 37 28 35.8807 28 34.5C28 33.1193 26.8807 32 25.5 32C24.1193 32 23 33.1193 23 34.5C23 35.8807 24.1193 37 25.5 37Z" fill="#2C2F3D"/>
<path d="M9.5 28C10.8807 28 12 26.8807 12 25.5C12 24.1193 10.8807 23 9.5 23C8.11929 23 7 24.1193 7 25.5C7 26.8807 8.11929 28 9.5 28Z" fill="#2C2F3D"/>
<path d="M13 36C14.1046 36 15 35.1046 15 34C15 32.8954 14.1046 32 13 32C11.8954 32 11 32.8954 11 34C11 35.1046 11.8954 36 13 36Z" fill="#2C2F3D"/>
</svg>
