<svg width="48" height="48" viewBox="0 0 48 48" fill="none" xmlns="http://www.w3.org/2000/svg">
<rect width="48" height="48" fill="white"/>
<path d="M24 43.0002C34.4934 43.0002 43 34.4937 43 24.0002C43 13.5068 34.4934 5.00024 24 5.00024C13.5066 5.00024 5 13.5068 5 24.0002C5 34.4937 13.5066 43.0002 24 43.0002Z" fill="#6B6D7A"/>
<path d="M23 13.04C23.33 13.02 23.66 13 24 13C30.08 13 35 17.92 35 24C35 30.08 30.08 35 24 35C17.92 35 13 30.08 13 24C13 21.08 14.14 18.42 16 16.45" stroke="white" stroke-width="3" stroke-miterlimit="10" stroke-linecap="round"/>
<path d="M24 24.0005L11 11.0005" stroke="white" stroke-width="3" stroke-miterlimit="10" stroke-linecap="round" stroke-linejoin="round"/>
</svg>
