<svg width="48" height="48" viewBox="0 0 48 48" fill="none" xmlns="http://www.w3.org/2000/svg">
<rect width="48" height="48" fill="#C4C4C4"/>
<path d="M42 24C42 24.85 41.94 25.68 41.82 26.51C38.16 28.54 37.11 30.97 38.3 34.93C37.34 36.2 36.2 37.33 34.93 38.3C30.97 37.12 28.54 38.16 26.51 41.82C25.69 41.94 24.85 42 24 42C23.15 42 22.32 41.94 21.49 41.82C19.46 38.16 17.03 37.11 13.07 38.3C11.8 37.34 10.67 36.2 9.7 34.93C10.88 30.97 9.84 28.54 6.18 26.51C6.06 25.68 6 24.85 6 24C6 23.15 6.06 22.32 6.18 21.49C9.84 19.46 10.89 17.03 9.7 13.07C10.67 11.8 11.8 10.67 13.07 9.7C17.03 10.88 19.46 9.84 21.49 6.18C22.31 6.06 23.15 6 24 6C24.85 6 25.68 6.06 26.51 6.18C28.54 9.84 30.97 10.89 34.93 9.7C36.2 10.66 37.33 11.8 38.3 13.07C37.12 17.03 38.16 19.46 41.82 21.49C41.94 22.32 42 23.15 42 24Z" stroke="#2C2F3D" stroke-width="3" stroke-miterlimit="10" stroke-linecap="round" stroke-linejoin="round"/>
<path d="M24 30C27.3137 30 30 27.3137 30 24C30 20.6863 27.3137 18 24 18C20.6863 18 18 20.6863 18 24C18 27.3137 20.6863 30 24 30Z" stroke="#2C2F3D" stroke-width="3" stroke-miterlimit="10" stroke-linecap="round" stroke-linejoin="round"/>
</svg>
