<svg width="48" height="48" viewBox="0 0 48 48" fill="none" xmlns="http://www.w3.org/2000/svg">
<rect width="48" height="48" fill="white"/>
<path d="M29.2536 41.0024H19.7264C13.2584 41.0024 8 35.7424 8 29.2624V20.7324C8 14.2624 13.2584 9.00244 19.7364 9.00244H20.9761C21.8058 9.00244 22.4756 9.67244 22.4756 10.5024C22.4756 11.3324 21.7958 12.0024 20.9661 12.0024H19.7264C14.9179 12.0024 10.9991 15.9224 10.9991 20.7424V29.2724C10.9991 34.0824 14.9179 38.0024 19.7364 38.0024H29.2636C34.0821 38.0024 38.0009 34.0824 38.0009 29.2624C38.0009 28.4324 38.6707 27.7624 39.5005 27.7624C40.3302 27.7624 41 28.4324 41 29.2624C40.99 35.7424 35.7316 41.0024 29.2536 41.0024Z" fill="#2C2F3D"/>
<path d="M38.4907 19.0024C37.6609 19.0024 36.9911 18.3324 36.9911 17.5024V9.00244H28.4937C27.6639 9.00244 26.9941 8.33244 26.9941 7.50244C26.9941 6.67244 27.6639 6.00244 28.4937 6.00244H38.4907C39.3204 6.00244 39.9902 6.67244 39.9902 7.50244V17.5024C39.9902 18.3324 39.3204 19.0024 38.4907 19.0024Z" fill="#2C2F3D"/>
<path d="M23.4956 33.0025C22.6659 33.0025 21.9961 32.3325 21.9961 31.5025C21.9961 25.3025 24.4154 19.4625 28.794 15.0825L37.4314 6.4425C38.0212 5.8525 38.9709 5.8525 39.5508 6.4425C40.1406 7.0325 40.1406 7.9825 39.5508 8.5625L30.9134 17.2025C27.0945 21.0225 24.9952 26.1025 24.9952 31.5025C24.9952 32.3325 24.3254 33.0025 23.4956 33.0025Z" fill="#2C2F3D"/>
</svg>
