<svg width="48" height="48" viewBox="0 0 48 48" fill="none" xmlns="http://www.w3.org/2000/svg">
<rect width="48" height="48" fill="white"/>
<path d="M14 29C16.7614 29 19 26.7614 19 24C19 21.2386 16.7614 19 14 19C11.2386 19 9 21.2386 9 24C9 26.7614 11.2386 29 14 29Z" fill="#2B2E3C"/>
<path d="M33 18C35.7614 18 38 15.7614 38 13C38 10.2386 35.7614 8 33 8C30.2386 8 28 10.2386 28 13C28 15.7614 30.2386 18 33 18Z" fill="#2B2E3C"/>
<path d="M33 40C35.7614 40 38 37.7614 38 35C38 32.2386 35.7614 30 33 30C30.2386 30 28 32.2386 28 35C28 37.7614 30.2386 40 33 40Z" fill="#2B2E3C"/>
<path d="M33 35L14 24L33 13" stroke="#2B2E3C" stroke-width="3" stroke-miterlimit="10"/>
</svg>
