<svg width="48" height="48" viewBox="0 0 48 48" fill="none" xmlns="http://www.w3.org/2000/svg">
<rect width="48" height="48" fill="#C4C4C4"/>
<path d="M26.0581 16.7686C26.0581 16.3947 25.9095 16.036 25.6451 15.7716C25.3806 15.5072 25.022 15.3586 24.6481 15.3586H12.7909C12.4169 15.3586 12.0583 15.5072 11.7938 15.7716C11.5294 16.036 11.3809 16.3947 11.3809 16.7686C11.3809 17.1426 11.5294 17.5012 11.7938 17.7656C12.0583 18.0301 12.4169 18.1786 12.7909 18.1786H24.6481C25.022 18.1786 25.3806 18.0301 25.6451 17.7656C25.9095 17.5012 26.0581 17.1426 26.0581 16.7686ZM12.7909 22.7518C12.4169 22.7518 12.0583 22.9004 11.7938 23.1648C11.5294 23.4292 11.3809 23.7879 11.3809 24.1618C11.3809 24.5358 11.5294 24.8944 11.7938 25.1588C12.0583 25.4233 12.4169 25.5718 12.7909 25.5718H18.2917C18.6656 25.5718 19.0242 25.4233 19.2887 25.1588C19.5531 24.8944 19.7016 24.5358 19.7016 24.1618C19.7016 23.7879 19.5531 23.4292 19.2887 23.1648C19.0242 22.9004 18.6656 22.7518 18.2917 22.7518H12.7909Z" fill="#2C2F3D"/>
<path d="M38.431 24.2808C38.0571 24.2808 37.6984 24.4294 37.434 24.6938C37.1696 24.9582 37.021 25.3169 37.021 25.6908V32.796C37.0197 34.2332 36.4483 35.6112 35.432 36.6274C34.4158 37.6437 33.0378 38.2151 31.6006 38.2164H13.045C11.6078 38.2151 10.2299 37.6437 9.21361 36.6274C8.19736 35.6112 7.62587 34.2332 7.6246 32.796V14.2488C7.62587 12.8116 8.19736 11.4337 9.21361 10.4174C10.2299 9.40116 11.6078 8.82967 13.045 8.8284H33.325C33.6929 8.81768 34.0422 8.66399 34.2987 8.39995C34.5551 8.1359 34.6986 7.7823 34.6986 7.41421C34.6986 7.04611 34.5551 6.69251 34.2987 6.42847C34.0422 6.16442 33.6929 6.01072 33.325 6H13.045C10.8585 6.00286 8.76241 6.87297 7.21665 8.4194C5.67089 9.96583 4.80171 12.0623 4.7998 14.2488V32.796C4.80235 34.982 5.67185 37.0777 7.21758 38.6234C8.7633 40.1692 10.859 41.0387 13.045 41.0412H31.597C33.783 41.0387 35.8787 40.1692 37.4244 38.6234C38.9702 37.0777 39.8397 34.982 39.8422 32.796V25.6908C39.8422 25.5055 39.8057 25.3221 39.7348 25.1509C39.6638 24.9798 39.5599 24.8243 39.4288 24.6934C39.2977 24.5624 39.1422 24.4586 38.971 24.3878C38.7998 24.317 38.6163 24.2806 38.431 24.2808Z" fill="#2C2F3D"/>
<path d="M42.0125 10.1966C41.6059 9.80974 41.0627 9.59964 40.5016 9.61223C39.9406 9.62482 39.4073 9.85908 39.0185 10.2638L19.6577 30.5438C19.4546 30.7424 19.2936 30.9799 19.1843 31.2421C19.075 31.5043 19.0197 31.7859 19.0215 32.07C19.0234 32.354 19.0824 32.6348 19.1952 32.8956C19.3079 33.1563 19.4719 33.3917 19.6776 33.5877C19.8832 33.7837 20.1262 33.9362 20.3921 34.0362C20.658 34.1363 20.9413 34.1817 21.2251 34.1699C21.509 34.1581 21.7875 34.0892 22.0442 33.9674C22.3008 33.8456 22.5303 33.6734 22.7189 33.461L42.0797 13.1894C42.4671 12.7833 42.6775 12.2401 42.6649 11.6791C42.6523 11.118 42.4177 10.5849 42.0125 10.1966Z" fill="#2C2F3D"/>
</svg>
