<svg width="48" height="48" viewBox="0 0 48 48" fill="none" xmlns="http://www.w3.org/2000/svg">
<rect width="48" height="48" fill="#C4C4C4"/>
<path d="M33.7142 15.4438C33.3484 14.9867 32.9027 14.5965 32.4227 14.2509C32.1713 14.0948 31.9313 13.9053 31.6684 13.7715C31.4056 13.6266 31.1313 13.4816 30.937 13.359C30.0799 12.8685 29.3942 12.1884 28.9942 11.408C28.7884 11.0179 28.6399 10.6054 28.5599 10.1817C28.5256 10.0145 28.5142 9.84728 28.4913 9.68005V9H25.5542V23.4371C24.8227 23.0692 23.9884 22.8574 23.1084 22.8574C20.137 22.8574 17.7256 25.2097 17.7256 28.1083C17.7256 31.0069 20.137 33.3592 23.1084 33.3592C26.0799 33.3592 28.4913 31.0069 28.4913 28.1083V13.7827C29.0742 14.1728 29.7142 14.485 30.3542 14.6745C30.9484 14.864 31.3713 14.9644 31.8742 15.1762C32.3427 15.388 32.7999 15.6221 33.1999 15.9454C34.0113 16.5697 34.6627 17.4839 34.8684 18.5542C34.9027 17.4616 34.457 16.3356 33.7142 15.4438Z" fill="#363A49"/>
<path d="M33.8861 23.2365C35.1889 24.5408 36.0003 26.3134 36.0003 28.2867C36.0003 30.3045 35.1546 32.1217 33.7832 33.4372" stroke="#363A49" stroke-width="3" stroke-miterlimit="10" stroke-linecap="round" stroke-linejoin="round"/>
<path d="M39.5765 17.6508C42.3079 20.371 43.9994 24.1057 43.9994 28.2194C43.9994 32.4446 42.2279 36.2574 39.3594 38.9999" stroke="#363A49" stroke-width="3" stroke-miterlimit="10" stroke-linecap="round" stroke-linejoin="round"/>
<path d="M14.1143 33.4257C12.8 32.1214 12 30.3488 12 28.3755C12 26.3577 12.8457 24.5405 14.2171 23.225" stroke="#363A49" stroke-width="3" stroke-miterlimit="10" stroke-linecap="round" stroke-linejoin="round"/>
<path d="M8.42286 38.9999C5.69143 36.2797 4 32.545 4 28.4312C4 24.206 5.77143 20.3933 8.64 17.6508" stroke="#363A49" stroke-width="3" stroke-miterlimit="10" stroke-linecap="round" stroke-linejoin="round"/>
</svg>
