<svg width="48" height="48" viewBox="0 0 48 48" fill="none" xmlns="http://www.w3.org/2000/svg">
<rect width="48" height="48" fill="#C4C4C4"/>
<path d="M15.5936 14.8062C15.5674 16.5814 16.0405 18.3246 16.9526 19.8141C17.8648 21.3036 19.1749 22.472 20.716 23.1706C22.2572 23.8692 23.9598 24.0664 25.6071 23.7371C27.2544 23.4077 28.7719 22.5668 29.9665 21.3213C31.1612 20.0758 31.9789 18.4821 32.3155 16.7429C32.6522 15.0038 32.4927 13.1979 31.8572 11.555C31.2217 9.91222 30.139 8.50678 28.7469 7.5176C27.3549 6.52842 25.7164 6.00023 24.04 6.00027C21.8173 5.98196 19.6787 6.89943 18.0947 8.55085C16.5108 10.2023 15.6111 12.4524 15.5936 14.8062ZM27.9145 26.5403H20.8831C18.0231 26.5404 15.278 27.7325 13.2414 29.859C11.2048 31.9855 10.0404 34.8755 10 37.904V38.6411C10 41.2 14.8759 41.2 20.8843 41.2H27.9157C33.9457 41.2 38.8 41.2 38.8 38.6411V37.904C38.7596 34.8752 37.595 31.9851 35.5582 29.8586C33.5213 27.732 30.7759 26.54 27.9157 26.5403H27.9145Z" fill="#2C2F3D"/>
</svg>
