<svg width="48" height="48" viewBox="0 0 48 48" fill="none" xmlns="http://www.w3.org/2000/svg">
<path d="M24 43C34.4934 43 43 34.4934 43 24C43 13.5066 34.4934 5 24 5C13.5066 5 5 13.5066 5 24C5 34.4934 13.5066 43 24 43Z" fill="#FFB835" stroke="#FFB835" stroke-width="3" stroke-miterlimit="10"/>
<path d="M19.6503 19.1198L31.8903 15.0398C32.5503 14.8198 33.1703 15.4498 32.9503 16.0998L28.8703 28.3398C28.7903 28.5898 28.5903 28.7898 28.3403 28.8698L16.1003 32.9498C15.4403 33.1698 14.8203 32.5398 15.0403 31.8898L19.1203 19.6498C19.2103 19.3998 19.4003 19.2098 19.6503 19.1198Z" stroke="white" stroke-width="3" stroke-miterlimit="10"/>
<path d="M24.0003 25.6803C24.9282 25.6803 25.6803 24.9282 25.6803 24.0003C25.6803 23.0725 24.9282 22.3203 24.0003 22.3203C23.0725 22.3203 22.3203 23.0725 22.3203 24.0003C22.3203 24.9282 23.0725 25.6803 24.0003 25.6803Z" fill="white"/>
</svg>
