<svg width="181" height="181" viewBox="0 0 181 181" fill="none" xmlns="http://www.w3.org/2000/svg">
<path d="M141.429 6.57778V64.1413C141.429 67.7736 138.483 70.7192 134.851 70.7192H45.1493C41.517 70.7192 38.5714 67.7736 38.5714 64.1413V6.57778C38.5714 2.94554 35.6258 -6.10352e-05 31.9986 -6.10352e-05H6.57784C2.9456 -6.10352e-05 0 2.94554 0 6.57778V70.7192V109.291V173.432C0 177.064 2.9456 180.01 6.57784 180.01H31.9986C35.6308 180.01 38.5764 177.064 38.5764 173.432V115.863C38.5764 112.231 41.522 109.286 45.1542 109.286H134.861C138.493 109.286 141.438 112.231 141.438 115.863V173.427C141.438 177.059 144.384 180.005 148.016 180.005H173.437C177.069 180.005 180.015 177.059 180.015 173.427V109.286V70.7142V6.57778C180.015 2.94554 177.069 -6.10352e-05 173.437 -6.10352e-05H148.016C144.374 -6.10352e-05 141.429 2.94554 141.429 6.57778Z" fill="#D8D8E5"/>
<path d="M47.6969 14.1263C43.6069 7.225 35.9643 4.13511 28.2321 6.25475C20.4949 8.37439 15.4944 14.9274 15.4944 22.9531V102.365C15.4944 104.186 16.9722 105.659 18.7933 105.659C20.6094 105.659 22.0872 104.186 22.0872 102.365V22.9531C22.0872 16.9176 26.3364 13.6088 29.9736 12.6137C33.6108 11.6185 38.9497 12.2952 42.0247 17.4848L72.0927 68.2268H79.7602L47.6969 14.1263ZM151.773 6.25475C144.036 4.13511 136.393 7.225 132.303 14.1263L90.0001 85.5123L86.1688 91.9806L75.5309 109.933C72.4061 115.197 72.3564 121.516 75.3866 126.835C78.4168 132.154 83.88 135.329 90.0001 135.329C96.1202 135.329 101.583 132.154 104.619 126.835C107.306 122.123 107.564 116.625 105.42 111.774H97.9015L98.8021 113.296C100.698 116.496 100.733 120.337 98.8867 123.571C97.0457 126.805 93.7219 128.736 90.0001 128.736C86.2783 128.736 82.9546 126.805 81.1136 123.571C79.2726 120.337 79.3024 116.496 81.2031 113.296L90.0001 98.444L93.8314 91.9806L137.976 17.4848C141.051 12.2952 146.389 11.6185 150.027 12.6137C153.664 13.6088 157.913 16.9176 157.913 22.9531V102.365C157.913 104.186 159.391 105.659 161.212 105.659C163.033 105.659 164.506 104.186 164.506 102.365V22.9531C164.506 14.9274 159.505 8.37439 151.773 6.25475Z" fill="#737382"/>
<path d="M164.69 76.6703H157.206C155.455 76.6703 154.037 78.0884 154.037 79.8398V128.761C154.037 134.697 151.4 137.334 147.444 134.035C143.488 130.736 135.906 125.795 132.607 131.069C129.308 136.344 127.989 146.892 128.651 158.764C129.313 170.636 133.268 175.905 140.518 172.611C147.768 169.317 160.296 158.107 164.257 146.235C168.043 134.881 167.601 122.322 167.556 121.252C167.556 121.198 167.551 121.148 167.551 121.098L167.854 79.8647C167.869 78.1033 166.451 76.6703 164.69 76.6703Z" fill="#1C1C23"/>
<path d="M15.3102 76.6708H22.7936C24.545 76.6708 25.9631 78.0889 25.9631 79.8403V128.761C25.9631 134.697 28.6002 137.334 32.5559 134.035C36.5115 130.737 44.0945 125.796 47.3933 131.07C50.6922 136.344 52.0108 146.893 51.349 158.764C50.6872 170.636 46.7316 175.906 39.482 172.612C32.2325 169.318 19.7037 158.103 15.748 146.236C11.9616 134.881 12.4044 122.323 12.4492 121.253C12.4492 121.198 12.4541 121.148 12.4541 121.099L12.1506 79.8652C12.1307 78.1038 13.5538 76.6708 15.3102 76.6708Z" fill="#1C1C23"/>
</svg>
